<?xml version="1.0" encoding="utf-8"?>
<!-- Generator: Adobe Illustrator 16.0.4, SVG Export Plug-In . SVG Version: 6.00 Build 0)  -->
<!DOCTYPE svg PUBLIC "-//W3C//DTD SVG 1.1//EN" "http://www.w3.org/Graphics/SVG/1.1/DTD/svg11.dtd">
<svg version="1.1" id="Layer_1" xmlns="http://www.w3.org/2000/svg" xmlns:xlink="http://www.w3.org/1999/xlink" x="0px" y="0px"
	 width="471.879px" height="529.735px" viewBox="0 0 471.879 529.735" enable-background="new 0 0 471.879 529.735"
	 xml:space="preserve">
<g>
	<path fill="none" stroke="#3195C2" stroke-width="5" stroke-miterlimit="10" d="M4,204.023c0.234-34.536,2.26-62.698,7.618-72.034
		c5.244-9.145,27.82-24.643,56.788-41.833L170.64,33.014c30.07-16.986,55.507-29.25,66.27-29.25
		c10.531,0,35.22,11.865,64.545,28.432l102.237,57.96c28.965,17.19,51.544,32.69,56.786,41.833
		c5.355,9.335,7.381,37.497,7.616,72.033V326.18c-0.234,34.537-2.26,62.699-7.618,72.035c-5.242,9.141-27.821,24.641-56.786,41.83
		l-102.163,56.439c-30.067,16.988-55.51,29.25-66.271,29.25c-10.535,0-35.217-11.859-64.544-28.434l-102.31-57.258
		c-28.967-17.188-51.544-32.688-56.788-41.83C6.26,388.879,4.234,360.717,4,326.18V204.023z M84.145,303.606h305.048"/>
	<circle fill="#3195C2" cx="236.669" cy="323.791" r="5.626"/>
	<path fill="none" stroke="#3195C2" stroke-width="6" stroke-miterlimit="10" d="M266.705,344.493c0,0-1.166,24.375,0,32.391
		c1.297,8.92,7.58,25.496,25.498,25.496H180.738c17.917,0,24.198-16.576,25.497-25.498c1.166-8.014,0-32.389,0-32.389"/>
	<path fill="none" stroke="#83C3A8" stroke-width="5" stroke-miterlimit="10" d="M388.902,335.084c0,5.094-4.283,9.223-9.572,9.223
		H94.005c-5.284,0-9.57-4.131-9.57-9.223V152.884c0-5.093,4.286-9.226,9.57-9.226H379.33c5.29,0,9.572,4.133,9.572,9.226V335.084
		L388.902,335.084z"/>
	<path fill="none" stroke="#3195C2" stroke-width="6" stroke-miterlimit="10" d="M388.902,335.084c0,5.094-4.283,9.223-9.572,9.223
		H94.005c-5.284,0-9.57-4.131-9.57-9.223V152.884c0-5.093,4.286-9.226,9.57-9.226H379.33c5.29,0,9.572,4.133,9.572,9.226V335.084
		L388.902,335.084z"/>
	<g>
		<path fill="none" stroke="#3195C2" stroke-width="5" stroke-miterlimit="10" d="M283.939,190.25h11.801v11.803h-11.801V190.25z
			 M178.407,190.25h11.804v11.803h-11.803L178.407,190.25z M289.779,202.213c0,29.33-23.777,53.11-53.109,53.11
			s-53.112-23.78-53.112-53.114 M230.253,264.073h-46.037 M289.503,264.073h-46.037"/>
		<path fill="none" stroke="#3195C2" stroke-width="5" stroke-miterlimit="10" d="M283.939,190.25h11.801v11.803h-11.801V190.25z
			 M178.407,190.25h11.804v11.803h-11.803L178.407,190.25z M289.779,202.213c0,29.33-23.777,53.11-53.109,53.11
			s-53.112-23.78-53.112-53.114"/>
		<path fill="none" stroke="#3195C2" stroke-width="5" stroke-miterlimit="10" d="M242.844,263.598c0,3.41-2.765,6.174-6.175,6.174
			c-3.412,0-6.176-2.764-6.176-6.172c0-3.412,2.764-6.178,6.175-6.178c3.407,0,6.174,2.766,6.174,6.176H242.844z M183.74,263.596
			c0.002,3.412-2.763,6.176-6.176,6.176c-3.41,0-6.175-2.764-6.175-6.176c0-3.408,2.764-6.174,6.174-6.174
			c3.413,0,6.175,2.764,6.175,6.174H183.74z M301.55,263.6c0,3.41-2.764,6.174-6.174,6.172c-3.41,0-6.175-2.764-6.175-6.174
			s2.766-6.176,6.173-6.176c3.414,0,6.178,2.766,6.178,6.178H301.55z"/>
	</g>
</g>
<g>
	<path fill="none" stroke="#3D98D3" stroke-width="5" stroke-miterlimit="10" d="M4-401.71c0.234-34.537,2.26-62.7,7.618-72.035
		c5.244-9.143,27.82-24.642,56.788-41.832L170.64-572.72c30.07-16.986,55.507-29.25,66.27-29.25
		c10.531,0,35.22,11.865,64.545,28.432l102.237,57.96c28.965,17.19,51.544,32.69,56.786,41.833
		c5.355,9.336,7.381,37.498,7.616,72.034v122.156c-0.234,34.537-2.26,62.7-7.618,72.035c-5.242,9.142-27.821,24.642-56.786,41.83
		l-102.161,56.44C271.462-92.26,246.02-80,235.26-80c-10.535,0-35.217-11.86-64.544-28.43l-102.31-57.26
		c-28.967-17.188-51.544-32.688-56.788-41.83C6.26-216.853,4.234-245.016,4-279.553V-401.71z"/>
	<path fill="none" stroke="#3D98D3" stroke-width="6" stroke-miterlimit="10" d="M4-401.71c0.234-34.537,2.26-62.7,7.618-72.035
		c5.244-9.143,27.82-24.642,56.788-41.832L170.64-572.72c30.07-16.986,55.507-29.25,66.27-29.25
		c10.531,0,35.22,11.865,64.545,28.432l102.237,57.96c28.965,17.19,51.544,32.69,56.786,41.833
		c5.355,9.336,7.381,37.498,7.616,72.034v122.156c-0.234,34.537-2.26,62.7-7.618,72.035c-5.242,9.142-27.821,24.642-56.786,41.83
		l-102.161,56.44C271.462-92.26,246.02-80,235.26-80c-10.535,0-35.217-11.86-64.544-28.43l-102.31-57.26
		c-28.967-17.188-51.544-32.688-56.788-41.83C6.26-216.853,4.234-245.016,4-279.553V-401.71z"/>
	<path fill="none" stroke="#3D98D3" stroke-width="5" stroke-miterlimit="10" d="M84.145-302.128h305.048"/>
	<circle fill="#3D98D3" stroke="#3D98D3" stroke-miterlimit="10" cx="236.669" cy="-281.944" r="5.626"/>
	<path fill="none" stroke="#3D98D3" stroke-width="6" stroke-miterlimit="10" d="M266.705-261.24c0,0-1.166,24.374,0,32.388
		c1.297,8.92,7.58,25.498,25.498,25.498H180.738c17.917,0,24.198-16.577,25.497-25.498c1.166-8.014,0-32.39,0-32.39"/>
	<path fill="none" stroke="#3D98D3" stroke-width="5" stroke-miterlimit="10" d="M388.902-270.65c0,5.095-4.283,9.224-9.572,9.224
		H94.005c-5.284,0-9.57-4.13-9.57-9.223v-182.2c0-5.092,4.286-9.225,9.57-9.225H379.33c5.29,0,9.572,4.133,9.572,9.226v182.2
		V-270.65z"/>
	<g>
		<path fill="none" stroke="#3D98D3" stroke-width="3" stroke-miterlimit="10" d="M96.252-369.776h85.586v55H96.252V-369.776z
			 M95.92-369.776l85.666,55 M181.252-369.11l-84,53"/>
	</g>
	<g>
		<path fill="none" stroke="#3D98D3" stroke-width="3" stroke-miterlimit="10" d="M194.252-369.776h85.586v55h-85.586V-369.776z
			 M193.92-369.776l85.666,55 M279.252-369.11l-84,53"/>
	</g>
	<g>
		<path fill="none" stroke="#3D98D3" stroke-width="3" stroke-miterlimit="10" d="M292.252-369.776h85.586v55h-85.586V-369.776z
			 M291.92-369.776l85.666,55 M377.252-369.11l-84,53"/>
	</g>
	<path fill="none" stroke="#3D98D3" stroke-width="3" stroke-miterlimit="10" d="M234.253-448.443h144.333 M234.253-437.61h144.333
		 M234.253-426.777h144.333 M234.253-415.944h144.333 M234.253-405.11h144.333 M234.253-394.277h144.333 M234.253-383.444h144.333"
		/>
	<g>
		<path fill="none" stroke="#3D98D3" stroke-width="3" stroke-miterlimit="10" d="M96.252-449.443H223.92v66.333H96.25
			L96.252-449.443z M222.502-448.36l-125,64.5 M97.752-448.11l124.75,63.75"/>
	</g>
</g>
<path fill="none" stroke="#3D98D3" stroke-width="5" stroke-miterlimit="10" d="M-556.667,203.877
	c0.234-34.536,2.26-62.698,7.618-72.034c5.245-9.143,27.82-24.642,56.79-41.832l102.233-57.142
	c30.07-16.986,55.507-29.25,66.27-29.25c10.532,0,35.22,11.865,64.545,28.432l102.237,57.96
	c28.965,17.19,51.544,32.69,56.787,41.833c5.357,9.336,7.382,37.498,7.618,72.034v122.158c-0.236,34.537-2.26,62.699-7.618,72.035
	c-5.243,9.139-27.822,24.639-56.787,41.83l-102.162,56.439c-30.068,16.99-55.51,29.25-66.27,29.25
	c-10.535,0-35.217-11.863-64.544-28.434l-102.31-57.256c-28.968-17.191-51.545-32.691-56.79-41.83
	c-5.356-9.338-7.383-37.5-7.617-72.037V203.877z"/>
<path fill="none" stroke="#3D98D3" stroke-width="3" stroke-miterlimit="10" d="M-443.714,161.987"/>
<g>
	<path fill="none" stroke="#3D98D3" stroke-width="3" stroke-miterlimit="10" d="M-461.712,275.208h83.266v56.357h-83.266V275.208z
		 M-462.036,275.208l83.344,56.357 M-379.017,275.892L-460.74,330.2"/>
</g>
<g>
	<path fill="none" stroke="#3D98D3" stroke-width="3" stroke-miterlimit="10" d="M-366.37,275.208h83.267v56.357h-83.266
		L-366.37,275.208z M-366.692,275.208l83.344,56.357 M-283.672,275.892l-81.724,54.308"/>
</g>
<g>
	<path fill="none" stroke="#3D98D3" stroke-width="3" stroke-miterlimit="10" d="M-271.024,275.208h83.266v56.357h-83.266V275.208z
		 M-271.348,275.208l83.344,56.357 M-188.33,275.892l-81.72,54.308"/>
</g>
<path fill="none" stroke="#3D98D3" stroke-width="3" stroke-miterlimit="10" d="M-271.024,345.737h83.266v38.609h-83.266V345.737z
	 M-327.452,190.96h140.42 M-327.452,202.06h140.42 M-327.452,213.16h140.42 M-462.965,346.938h181.36 M-462.965,359.588h181.36
	 M-462.965,371.331h181.36 M-327.452,224.262h140.42 M-327.452,235.363h140.42 M-327.452,246.463h140.42 M-327.452,257.563h140.42"
	/>
<g>
	<path fill="none" stroke="#3D98D3" stroke-width="3" stroke-miterlimit="10" d="M-461.712,189.936h124.207v67.97h-124.207V189.936z
		 M-338.884,191.045l-121.613,66.092 M-460.253,191.302l121.37,65.323"/>
</g>
<g>
	<circle fill="#3D98D3" stroke="#3D98D3" stroke-miterlimit="10" cx="-461.24" cy="159.387" r="5.158"/>
	<circle fill="#3D98D3" stroke="#3D98D3" stroke-miterlimit="10" cx="-442.905" cy="159.387" r="5.157"/>
	<circle fill="#3D98D3" stroke="#3D98D3" stroke-miterlimit="10" cx="-424.57" cy="159.387" r="5.158"/>
</g>
<g>
	<path fill="none" stroke="#3D98D3" stroke-width="5" stroke-miterlimit="10" d="M-169.664,379.129c0,2.398-1.547,4.34-3.456,4.34
		h-302.42c-1.91,0-3.458-1.941-3.458-4.34V151.2c0-2.396,1.548-4.34,3.457-4.34h302.42c1.91,0,3.456,1.943,3.456,4.34
		L-169.664,379.129L-169.664,379.129z M-479.574,172.907h309.334"/>
</g>
<g>
	<path fill="none" stroke="#3D98D3" stroke-width="5" stroke-miterlimit="10" d="M578.457,203.877
		c0.234-34.536,2.26-62.698,7.618-72.034c5.244-9.143,27.818-24.642,56.787-41.832L745.096,32.87
		c30.072-16.986,55.508-29.25,66.271-29.25c10.533,0,35.22,11.865,64.545,28.432l102.24,57.96
		c28.964,17.19,51.542,32.69,56.785,41.833c5.356,9.336,7.381,37.498,7.616,72.034v122.157c-0.234,34.537-2.26,62.701-7.616,72.035
		c-5.243,9.141-27.821,24.641-56.786,41.83L875.987,496.34c-30.068,16.99-55.511,29.25-66.271,29.25
		c-10.535,0-35.217-11.861-64.545-28.432l-102.31-57.258c-28.97-17.191-51.544-32.691-56.788-41.83
		c-5.357-9.338-7.384-37.5-7.618-72.037L578.457,203.877L578.457,203.877z"/>
	<g>
		<path fill="#3C98D2" d="M781.477,229.504l-42.723,19.53l42.5,19.53v9.433l-56.37-25.634v-6.658l56.593-25.634V229.504
			L781.477,229.504z M797.676,286.32l-7.88-2.663l34.07-83.337l7.877,2.885L797.676,286.32z M840.954,220.072l56.37,25.634v6.658
			l-56.37,25.632v-9.433l42.5-19.53l-42.5-19.53V220.072z"/>
	</g>
	<path fill="none" stroke="#3D98D3" stroke-width="6" stroke-miterlimit="10" d="M944.102,328.512c0,2.137-1.752,3.869-3.914,3.869
		H679.434c-2.158,0-3.914-1.732-3.914-3.869V158.708c0-2.137,1.755-3.87,3.914-3.87h260.754c2.162,0,3.914,1.733,3.914,3.87V328.512
		z M977.061,380.86c0,0.621-1.75,1.125-3.914,1.125l-323.086-0.625c-2.158,0-3.911-0.502-3.911-1.123l29.372-47.775
		c0-0.621,1.753-1.123,3.913-1.123h260.755c2.162,0,3.914,0.502,3.914,1.123l32.959,48.4L977.061,380.86z"/>
	<path fill="none" stroke="#3D98D3" stroke-width="5" stroke-miterlimit="10" d="M956.975,351.19c0-0.459-1.752-0.83-3.914-0.83
		h-81.5l3,7.033c0,3.107-1.789,5.629-4,5.629h-120c-2.208,0-4-2.521-4-5.629l3-7.033h-82c-2.158,0-3.911,0.371-3.911,0.83l-18.5,29
		c0,0.461,1.753,0.832,3.913,0.832l323.087,0.461c2.161,0,3.913-0.371,3.913-0.832l-19.084-29.461H956.975z"/>
</g>
</svg>
