<?xml version="1.0" encoding="utf-8"?>
<!-- Generator: Adobe Illustrator 16.0.4, SVG Export Plug-In . SVG Version: 6.00 Build 0)  -->
<!DOCTYPE svg PUBLIC "-//W3C//DTD SVG 1.1//EN" "http://www.w3.org/Graphics/SVG/1.1/DTD/svg11.dtd">
<svg version="1.1" id="Layer_1" xmlns="http://www.w3.org/2000/svg" xmlns:xlink="http://www.w3.org/1999/xlink" x="0px" y="0px"
	 width="471.879px" height="529.735px" viewBox="0 0 471.879 529.735" enable-background="new 0 0 471.879 529.735"
	 xml:space="preserve">
<g>
	<path fill="none" stroke="#3195C2" stroke-width="5" stroke-miterlimit="10" d="M4.304,203.877
		c0.234-34.536,2.26-62.698,7.618-72.034C17.166,122.7,39.742,107.2,68.71,90.01l102.234-57.14
		c30.07-16.986,55.507-29.25,66.27-29.25c10.532,0,35.22,11.865,64.545,28.432l102.236,57.96
		c28.965,17.19,51.543,32.69,56.788,41.833c5.355,9.336,7.38,37.498,7.617,72.034v122.157c-0.235,34.537-2.262,62.701-7.616,72.035
		c-5.244,9.141-27.822,24.641-56.788,41.83L301.834,496.34c-30.068,16.99-55.51,29.25-66.27,29.25
		c-10.535,0-35.217-11.861-64.544-28.432L68.71,439.901c-28.967-17.191-51.544-32.691-56.788-41.83
		c-5.357-9.338-7.384-37.5-7.618-72.037V203.877z"/>
	<path fill="none" stroke="#3195C2" stroke-width="3" stroke-miterlimit="10" d="M117.257,161.987"/>
	<g>
		<path fill="none" stroke="#3195C2" stroke-width="3" stroke-miterlimit="10" d="M99.247,285.208h80.028v56.357H99.247V285.208z
			 M98.936,285.208l80.103,56.357 M178.727,285.892L100.182,340.2"/>
	</g>
	<g>
		<path fill="none" stroke="#3195C2" stroke-width="3" stroke-miterlimit="10" d="M195.882,285.208h80.028v56.357h-80.028V285.208z
			 M195.572,285.208l80.102,56.357 M275.361,285.892L196.817,340.2"/>
	</g>
	<g>
		<path fill="none" stroke="#3195C2" stroke-width="3" stroke-miterlimit="10" d="M292.52,285.208h80.026v56.357H292.52V285.208z
			 M292.208,285.208l80.103,56.357 M371.998,285.892L293.453,340.2"/>
	</g>
	<path fill="none" stroke="#3195C2" stroke-width="3" stroke-miterlimit="10" d="M289.947,364.737h83.266v17.609h-83.266V364.737z
		 M244.725,193.96h129.215 M244.725,210.86h129.215 M244.725,227.762h129.215 M98.006,365.938h181.362 M98.006,383.588h181.362
		 M244.725,244.663h129.215 M244.725,261.563h129.215"/>
	<g>
		<path fill="none" stroke="#3195C2" stroke-width="3" stroke-miterlimit="10" d="M99.26,193.936h124.206v67.97H99.26V193.936z
			 M222.087,195.045l-121.612,66.092 M100.72,195.302l121.367,65.323"/>
	</g>
	<g>
		<circle fill="#3195C2" stroke="#3195C2" stroke-miterlimit="10" cx="99.731" cy="159.387" r="5.158"/>
		<circle fill="#3195C2" stroke="#3195C2" stroke-miterlimit="10" cx="118.067" cy="159.387" r="5.157"/>
		<circle fill="#3195C2" stroke="#3195C2" stroke-miterlimit="10" cx="136.402" cy="159.387" r="5.158"/>
	</g>
	<g>
		<path fill="none" stroke="#3195C2" stroke-width="5" stroke-miterlimit="10" d="M391.309,379.129c0,2.398-1.547,4.34-3.457,4.34
			H85.432c-1.91,0-3.458-1.941-3.458-4.34V151.2c0-2.396,1.548-4.34,3.457-4.34h302.422c1.91,0,3.455,1.943,3.455,4.34V379.129
			L391.309,379.129z M81.397,172.907H390.73"/>
	</g>
</g>
</svg>
