<?xml version="1.0" encoding="utf-8"?>
<!-- Generator: Adobe Illustrator 16.0.4, SVG Export Plug-In . SVG Version: 6.00 Build 0)  -->
<!DOCTYPE svg PUBLIC "-//W3C//DTD SVG 1.1//EN" "http://www.w3.org/Graphics/SVG/1.1/DTD/svg11.dtd">
<svg version="1.1" id="Layer_1" xmlns="http://www.w3.org/2000/svg" xmlns:xlink="http://www.w3.org/1999/xlink" x="0px" y="0px"
	 width="471.879px" height="529.735px" viewBox="0 0 471.879 529.735" enable-background="new 0 0 471.879 529.735"
	 xml:space="preserve">
<path fill="none" stroke="#3195C2" stroke-width="5" stroke-miterlimit="10" d="M3.344,204.022
	c0.234-34.536,2.26-62.698,7.617-72.034c5.245-9.143,27.82-24.642,56.79-41.832l102.233-57.143
	c30.07-16.986,55.507-29.25,66.27-29.25c10.532,0,35.221,11.865,64.545,28.432l102.237,57.96
	c28.965,17.189,51.544,32.689,56.787,41.833c5.355,9.336,7.382,37.498,7.618,72.034V326.18c-0.236,34.537-2.262,62.699-7.618,72.035
	c-5.243,9.141-27.822,24.641-56.787,41.83l-102.162,56.439c-30.067,16.988-55.51,29.25-66.27,29.25
	c-10.535,0-35.217-11.859-64.545-28.434L67.75,440.045c-28.968-17.189-51.544-32.689-56.788-41.83
	c-5.356-9.338-7.383-37.5-7.617-72.037V204.02L3.344,204.022z"/>
<path fill="none" stroke="#3195C2" stroke-width="5" stroke-miterlimit="10" d="M351.814,362.809V164.435"/>
<circle fill="#3195C2" stroke="#3195C2" stroke-miterlimit="10" cx="369.814" cy="263.623" r="5.626"/>
<path fill="none" stroke="#3195C2" stroke-width="5" stroke-miterlimit="10" d="M388.047,354.723c0,5.096-4.283,9.225-9.572,9.225
	H93.15c-5.284,0-9.57-4.131-9.57-9.225V172.524c0-5.093,4.286-9.226,9.57-9.226h285.325c5.291,0,9.572,4.133,9.572,9.226V354.723z"
	/>
<path fill="none" stroke="#3195C2" stroke-width="6" stroke-miterlimit="10" d="M388.047,354.723c0,5.096-4.283,9.225-9.572,9.225
	H93.15c-5.284,0-9.57-4.131-9.57-9.225V172.524c0-5.093,4.286-9.226,9.57-9.226h285.325c5.291,0,9.572,4.133,9.572,9.226V354.723z"
	/>
<path fill="none" stroke="#3195C2" stroke-width="5" stroke-miterlimit="10" d="M95.814,175.29h68V349h-68V175.29z M184.814,175.124
	h145.5v56h-145.5V175.124z M184.294,278.39c0-7.511,6.08-13.606,13.58-13.606c7.497,0,13.578,6.095,13.578,13.607
	c0,7.514-6.08,13.609-13.58,13.609C190.375,292,184.294,285.905,184.294,278.39L184.294,278.39z M243.779,278.39
	c0-7.511,6.08-13.606,13.58-13.606s13.578,6.095,13.578,13.607c0,7.514-6.08,13.609-13.578,13.609S243.779,285.905,243.779,278.39
	L243.779,278.39z M303.266,278.39c0-7.511,6.082-13.606,13.58-13.606c7.496,0,13.577,6.095,13.577,13.607
	c0,7.514-6.08,13.609-13.577,13.609C309.348,292,303.266,285.905,303.266,278.39L303.266,278.39z M182.355,247.957h150.44
	 M182.355,309.641h150.44 M182.355,328.975h150.44 M182.355,348.309h150.44"/>
<path fill="none" stroke="#3195C2" stroke-width="5" stroke-miterlimit="10" d="M106.314,189.124h47 M106.314,207.052h47
	 M106.314,224.98h47 M106.314,242.91h47 M106.314,260.838h47 M106.314,278.767h47"/>
</svg>
