<?xml version="1.0" encoding="utf-8"?>
<!-- Generator: Adobe Illustrator 16.0.4, SVG Export Plug-In . SVG Version: 6.00 Build 0)  -->
<!DOCTYPE svg PUBLIC "-//W3C//DTD SVG 1.1//EN" "http://www.w3.org/Graphics/SVG/1.1/DTD/svg11.dtd">
<svg version="1.1" id="Layer_1" xmlns="http://www.w3.org/2000/svg" xmlns:xlink="http://www.w3.org/1999/xlink" x="0px" y="0px"
	 width="471.879px" height="529.735px" viewBox="0 0 471.879 529.735" enable-background="new 0 0 471.879 529.735"
	 xml:space="preserve">
<g>
	<path fill="none" stroke="#3195C2" stroke-width="5" stroke-miterlimit="10" d="M4,203.26c0.234-34.537,2.26-62.7,7.618-72.035
		c5.244-9.143,27.82-24.642,56.788-41.832L170.64,32.25C200.71,15.264,226.147,3,236.91,3c10.531,0,35.22,11.865,64.545,28.432
		l102.237,57.96c28.965,17.19,51.544,32.69,56.786,41.833c5.355,9.336,7.381,37.498,7.616,72.034v122.156
		c-0.234,34.537-2.26,62.701-7.618,72.035c-5.242,9.143-27.821,24.643-56.786,41.83l-102.161,56.439
		c-30.067,16.99-55.51,29.25-66.271,29.25c-10.535,0-35.217-11.859-64.544-28.43l-102.31-57.26
		c-28.967-17.189-51.544-32.689-56.788-41.83C6.26,388.116,4.234,359.954,4,325.417V203.26z"/>
	<path fill="none" stroke="#3195C2" stroke-width="5" stroke-miterlimit="10" d="M388.668,362.44c0,2.166-1.756,3.92-3.92,3.92
		H87.257c-2.166,0-3.922-1.754-3.922-3.92V172.28c0-2.165,1.756-3.92,3.92-3.92h297.49c2.166,0,3.922,1.755,3.922,3.92
		L388.668,362.44L388.668,362.44z M86.252,171.36c0,0,96.847,101.689,140.5,123.5c1.877,0.938,6.235,2.002,8.333,2
		c2.058-0.002,6.325-1.085,8.167-2c44.498-22.113,144-125,144-125 M181.252,263.36l-97,102.5 M291.252,263.36l97,102.5"/>
</g>
</svg>
