<?xml version="1.0" encoding="utf-8"?>
<!-- Generator: Adobe Illustrator 16.0.4, SVG Export Plug-In . SVG Version: 6.00 Build 0)  -->
<!DOCTYPE svg PUBLIC "-//W3C//DTD SVG 1.1//EN" "http://www.w3.org/Graphics/SVG/1.1/DTD/svg11.dtd">
<svg version="1.1" id="Layer_1" xmlns="http://www.w3.org/2000/svg" xmlns:xlink="http://www.w3.org/1999/xlink" x="0px" y="0px"
	 width="168.365px" height="189.361px" viewBox="0 0 168.365 189.361" enable-background="new 0 0 168.365 189.361"
	 xml:space="preserve">
<g>
	<path fill="#FFFFFF" d="M165.602,46.518c-1.902-3.316-10.093-8.939-20.602-15.176l-37.089-21.027C97.271,4.305,88.317,0,84.495,0
		c-3.904,0-13.132,4.449-24.041,10.611l-37.089,20.73C12.856,37.578,4.666,43.201,2.764,46.518C0.82,49.904,0.085,60.121,0,72.65
		v44.316c0.085,12.529,0.82,22.746,2.764,26.133c1.902,3.316,10.093,8.939,20.602,15.176l37.116,20.771
		c10.64,6.012,19.594,10.314,23.416,10.314c3.904,0,13.132-4.447,24.041-10.611L145,158.275
		c10.509-6.236,18.699-11.859,20.602-15.176c1.943-3.387,2.679-13.604,2.764-26.133V72.65
		C168.28,60.121,167.545,49.904,165.602,46.518z M104.157,89.373c0.58,0,1.121-0.084,1.619-0.254
		c0.496-0.168,1.037-0.256,1.617-0.256c0.414,0,0.828,0.07,1.244,0.205c0.414,0.137,0.623,0.443,0.623,0.918
		c0,0.75-0.27,1.447-0.811,2.092c-0.539,0.648-1.203,1.227-1.99,1.736c-0.789,0.51-1.617,0.953-2.488,1.326
		c-0.871,0.375-1.68,0.699-2.428,0.971c-0.996,3.674-2.24,7.842-3.734,12.502c-1.492,4.66-3.297,9.322-5.412,13.982
		c-2.117,4.66-4.544,9.066-7.282,13.217c-2.737,4.15-5.808,7.484-9.208,10.004c-1.164,0.951-2.532,1.785-4.107,2.5
		c-1.577,0.715-3.195,1.072-4.854,1.072c-1.909,0-3.402-0.393-4.479-1.174c-1.079-0.783-1.889-1.754-2.427-2.91
		c-0.541-1.156-0.871-2.416-0.995-3.775c-0.126-1.363-0.188-2.621-0.188-3.777v-1.428c0-3.676,1.099-7.621,3.299-11.84
		c2.197-4.221,4.956-8.352,8.275-12.4c3.317-4.049,6.906-7.824,10.766-11.33c3.857-3.504,7.486-6.311,10.891-8.42
		c1.74-5.646,3.338-11.312,4.789-16.994c1.453-5.68,2.18-11.482,2.18-17.402c0-0.816-0.021-1.852-0.062-3.111
		c-0.043-1.26-0.25-2.502-0.623-3.727s-0.955-2.262-1.742-3.113c-0.789-0.85-1.93-1.275-3.422-1.275
		c-1.826,0-3.735,0.51-5.726,1.531s-3.879,2.264-5.662,3.725c-1.785,1.465-3.423,3.012-4.916,4.645
		c-1.494,1.633-2.613,3.062-3.361,4.287c-0.58,0.953-1.141,2.025-1.68,3.215c-0.54,1.191-1.017,2.416-1.431,3.674
		c-0.416,1.26-0.728,2.518-0.934,3.775c-0.208,1.262-0.311,2.436-0.311,3.521c0,0.887,0.125,1.652,0.372,2.297
		c0.25,0.648,0.499,1.242,0.747,1.787c0.249,0.545,0.498,1.055,0.747,1.531s0.373,0.986,0.373,1.531c0,1.496-0.83,2.244-2.489,2.244
		c-1.245,0-2.221-0.357-2.924-1.072c-0.707-0.713-1.245-1.547-1.618-2.5c-0.372-0.951-0.603-1.973-0.685-3.061
		c-0.083-1.088-0.125-1.975-0.125-2.654c0-2.586,0.438-5.137,1.307-7.656c0.872-2.516,1.971-4.965,3.299-7.348
		c1.16-2.041,2.8-4.236,4.916-6.582c2.116-2.35,4.521-4.543,7.218-6.584c2.695-2.041,5.579-3.725,8.649-5.053
		c3.07-1.326,6.057-1.99,8.963-1.99c2.9,0,5.121,0.766,6.656,2.297s2.678,3.367,3.424,5.512c0.744,2.143,1.182,4.389,1.305,6.736
		c0.127,2.348,0.188,4.338,0.188,5.971c0,4.967-0.498,9.832-1.492,14.594c-0.996,4.764-2.324,9.527-3.984,14.289H104.157z"/>
	<path fill="#FFFFFF" d="M81.818,106.725c-2.946,3.131-5.685,6.5-8.215,10.104c-2.531,3.607-4.647,7.23-6.347,10.871
		c-1.701,3.639-2.551,6.855-2.551,9.645c0,0.271,0.02,0.68,0.062,1.227c0.041,0.543,0.124,1.07,0.249,1.58
		c0.125,0.512,0.352,0.953,0.685,1.328c0.331,0.373,0.747,0.561,1.244,0.561c1.245,0,2.613-0.902,4.107-2.705
		s3.049-4.117,4.666-6.939c1.618-2.824,3.216-5.938,4.793-9.34c1.575-3.402,3.005-6.684,4.292-9.848
		c1.287-3.166,2.407-6.006,3.361-8.523c0.953-2.518,1.597-4.32,1.929-5.408C87.522,101.111,84.762,103.596,81.818,106.725z"/>
</g>
</svg>
